<?xml version="1.0" encoding="UTF-8"?>
<svg version="1.1" viewBox="0 0 48 48" xmlns="http://www.w3.org/2000/svg">
  <g>
    <path d="m5 3v42h17v-42h-17zm21 0v42h17v-42h-17z" style="fill:#7dd8ff;stroke-dasharray:2.66667, 2.66667;stroke-width:2.6667"/>
    <path transform="translate(15.526 -14)" d="m15.646 28-5.1719 8.957v22.043h18v-8.7793l-12.828-22.221zm-9.1719 15.885-8.7266 15.115h8.7266v-15.115z" style="fill:#0097bf;stroke-dasharray:2.66667, 2.66667;stroke-width:2.6667"/>
    <path transform="translate(21.963 -4)" d="m19.037 27.264-12.551 21.736h15.551v-16.541l-3-5.1953z" style="fill:#00aad5;stroke-dasharray:2.66667, 2.66667;stroke-width:2.6667"/>
    <path transform="translate(.80625 -2)" d="m11 28.973-7.8066 13.52v4.5078h18v-0.37109l-10.193-17.656z" style="fill:#00aad5;stroke-dasharray:2.66667, 2.66667;stroke-width:2.6667"/>
    <path transform="translate(1)" d="m2 3h18v42h-18m42-42h-18v42h18" style="fill:none;stroke-linecap:round;stroke-linejoin:round;stroke-width:2;stroke:#3d3d3d"/>
  </g>
</svg>
